<svg width="36" height="36" viewBox="0 0 36 36" fill="none" xmlns="http://www.w3.org/2000/svg">
<path d="M26.0143 2H9.96114C5.52819 2 1.93457 5.55342 1.93457 9.93679V25.8104C1.93457 30.1937 5.52819 33.7472 9.96114 33.7472H26.0143C30.4472 33.7472 34.0408 30.1937 34.0408 25.8104V9.93679C34.0408 5.55342 30.4472 2 26.0143 2Z" stroke="#333333" stroke-width="3" stroke-linecap="round" stroke-linejoin="round"/>
<path d="M24.4087 16.8736C24.6069 18.1947 24.3787 19.5439 23.7566 20.7294C23.1345 21.9148 22.1503 22.8761 20.9439 23.4765C19.7374 24.077 18.3703 24.286 17.0368 24.0738C15.7033 23.8616 14.4715 23.2391 13.5164 22.2947C12.5614 21.3504 11.9318 20.1323 11.7172 18.8137C11.5027 17.4952 11.714 16.1433 12.3213 14.9504C12.9285 13.7574 13.9007 12.7842 15.0995 12.1691C16.2983 11.554 17.6628 11.3284 18.9988 11.5243C20.3616 11.7241 21.6233 12.352 22.5975 13.3153C23.5716 14.2786 24.2067 15.5261 24.4087 16.8736Z" stroke="#333333" stroke-width="3" stroke-linecap="round" stroke-linejoin="round"/>
<path d="M26.817 9.14355H26.8337" stroke="#333333" stroke-width="3" stroke-linecap="round" stroke-linejoin="round"/>
</svg>
