<svg width="319" height="600" viewBox="69 0 319 600" fill="none" xmlns="http://www.w3.org/2000/svg">
<g filter="url(#filter0_d)">
<rect x="68.5" y="56.7122" width="319" height="460.756" rx="32" fill="#d81f26"/>
</g>
<path d="M100.59 127.803C98.5715 129.148 99.2444 131.705 103.551 132.916C107.992 134.397 112.836 134.801 117.547 133.993C117.816 133.993 118.085 133.859 118.219 133.859V129.283L113.644 130.763C111.894 131.302 110.145 131.436 108.395 131.032C107.05 130.629 107.319 129.821 108.934 129.148L118.219 125.919V120.939L105.3 125.38C103.685 125.919 102.07 126.726 100.59 127.803ZM131.812 107.616V120.67C137.329 123.362 141.636 120.67 141.636 113.672C141.636 106.54 139.079 103.31 131.677 100.753C127.774 99.4073 123.737 98.1961 119.7 97.3887V136.281L129.12 139.107V106.405C129.12 104.925 129.12 103.848 130.197 104.252C131.677 104.656 131.812 106.136 131.812 107.616ZM149.306 124.707C145.404 123.362 141.232 122.823 137.195 123.227C135.041 123.362 133.023 123.9 131.139 124.573L130.735 124.707V129.956L139.482 126.726C141.232 126.188 142.981 126.053 144.731 126.457C146.076 126.861 145.807 127.668 144.192 128.341L130.735 133.32V138.434L149.306 131.571C150.652 131.032 151.863 130.36 152.94 129.283C153.882 127.937 153.478 126.053 149.306 124.707Z" fill="white"/>
<path d="M100.534 442.107V440.451C100.55 440.435 100.758 440.307 101.158 440.067C101.574 439.827 102.102 439.499 102.742 439.083C103.382 438.651 104.046 438.171 104.734 437.643C105.438 437.099 106.086 436.523 106.678 435.915C107.27 435.307 107.718 434.707 108.022 434.115C108.39 433.347 108.502 432.667 108.358 432.075C108.23 431.467 107.91 430.995 107.398 430.659C106.902 430.307 106.286 430.131 105.55 430.131C104.638 430.147 103.91 430.443 103.366 431.019C102.822 431.595 102.598 432.459 102.694 433.611L100.846 433.371C100.766 432.347 100.926 431.475 101.326 430.755C101.742 430.019 102.334 429.459 103.102 429.075C103.87 428.675 104.758 428.475 105.766 428.475C106.63 428.475 107.398 428.635 108.07 428.955C108.742 429.259 109.278 429.691 109.678 430.251C110.094 430.795 110.326 431.419 110.374 432.123C110.422 432.827 110.254 433.571 109.87 434.355C109.566 434.947 109.142 435.531 108.598 436.107C108.07 436.667 107.486 437.195 106.846 437.691C106.206 438.187 105.582 438.635 104.974 439.035C104.382 439.419 103.862 439.731 103.414 439.971C102.982 440.195 102.71 440.331 102.598 440.379H110.638V442.107H100.534ZM112.675 442.107V440.451C112.691 440.435 112.899 440.307 113.299 440.067C113.715 439.827 114.243 439.499 114.883 439.083C115.523 438.651 116.187 438.171 116.875 437.643C117.579 437.099 118.227 436.523 118.819 435.915C119.411 435.307 119.859 434.707 120.163 434.115C120.531 433.347 120.643 432.667 120.499 432.075C120.371 431.467 120.051 430.995 119.539 430.659C119.043 430.307 118.427 430.131 117.691 430.131C116.779 430.147 116.051 430.443 115.507 431.019C114.963 431.595 114.739 432.459 114.835 433.611L112.987 433.371C112.907 432.347 113.067 431.475 113.467 430.755C113.883 430.019 114.475 429.459 115.243 429.075C116.011 428.675 116.899 428.475 117.907 428.475C118.771 428.475 119.539 428.635 120.211 428.955C120.883 429.259 121.419 429.691 121.819 430.251C122.235 430.795 122.467 431.419 122.515 432.123C122.563 432.827 122.395 433.571 122.011 434.355C121.707 434.947 121.283 435.531 120.739 436.107C120.211 436.667 119.627 437.195 118.987 437.691C118.347 438.187 117.723 438.635 117.115 439.035C116.523 439.419 116.003 439.731 115.555 439.971C115.123 440.195 114.851 440.331 114.739 440.379H122.779V442.107H112.675ZM128.631 442.107H126.639C126.639 440.267 126.903 438.603 127.431 437.115C127.975 435.627 128.711 434.323 129.639 433.203C130.583 432.067 131.655 431.107 132.855 430.323H124.863V428.595H134.775V430.275C134.391 430.531 133.935 430.867 133.407 431.283C132.879 431.699 132.335 432.219 131.775 432.843C131.231 433.451 130.719 434.195 130.239 435.075C129.759 435.939 129.367 436.955 129.063 438.123C128.775 439.275 128.631 440.603 128.631 442.107ZM142.098 442.443C140.146 442.443 138.706 441.811 137.778 440.547C136.866 439.267 136.41 437.547 136.41 435.387C136.41 433.963 136.602 432.731 136.986 431.691C137.386 430.635 138.002 429.819 138.834 429.243C139.682 428.651 140.77 428.355 142.098 428.355C143.394 428.355 144.458 428.643 145.29 429.219C146.138 429.795 146.762 430.611 147.162 431.667C147.578 432.723 147.786 433.963 147.786 435.387C147.786 436.779 147.578 438.011 147.162 439.083C146.762 440.139 146.138 440.963 145.29 441.555C144.458 442.147 143.394 442.443 142.098 442.443ZM142.074 440.763C143.402 440.763 144.37 440.299 144.978 439.371C145.602 438.443 145.914 437.115 145.914 435.387C145.914 433.675 145.61 432.355 145.002 431.427C144.394 430.483 143.418 430.011 142.074 430.011C140.778 430.011 139.818 430.467 139.194 431.379C138.586 432.275 138.282 433.611 138.282 435.387C138.282 437.099 138.578 438.427 139.17 439.371C139.762 440.299 140.73 440.763 142.074 440.763ZM160.118 442.347C159.11 442.347 158.286 442.211 157.646 441.939C157.006 441.651 156.502 441.323 156.134 440.955C155.782 440.571 155.534 440.235 155.39 439.947C155.246 439.659 155.174 439.507 155.174 439.491L157.118 439.035C157.118 439.051 157.166 439.139 157.262 439.299C157.358 439.443 157.518 439.619 157.742 439.827C157.982 440.019 158.294 440.195 158.678 440.355C159.062 440.499 159.542 440.571 160.118 440.571C161.366 440.571 162.294 440.027 162.902 438.939C163.526 437.851 163.806 436.259 163.742 434.163C163.71 434.403 163.598 434.707 163.406 435.075C163.23 435.427 162.974 435.779 162.638 436.131C162.302 436.483 161.87 436.779 161.342 437.019C160.83 437.259 160.23 437.379 159.542 437.379C158.47 437.379 157.582 437.163 156.878 436.731C156.19 436.299 155.678 435.747 155.342 435.075C155.022 434.403 154.878 433.691 154.91 432.939C154.958 432.171 155.182 431.451 155.582 430.779C155.982 430.107 156.566 429.555 157.334 429.123C158.102 428.691 159.046 428.475 160.166 428.475C161.526 428.475 162.622 428.803 163.454 429.459C164.286 430.099 164.878 430.955 165.23 432.027C165.598 433.099 165.75 434.267 165.686 435.531C165.638 436.795 165.43 437.947 165.062 438.987C164.694 440.011 164.11 440.827 163.31 441.435C162.526 442.043 161.462 442.347 160.118 442.347ZM159.95 436.131C160.99 436.131 161.806 435.819 162.398 435.195C163.006 434.555 163.366 433.763 163.478 432.819C163.254 431.907 162.846 431.227 162.254 430.779C161.662 430.331 160.958 430.107 160.142 430.107C159.294 430.107 158.606 430.307 158.078 430.707C157.566 431.107 157.214 431.611 157.022 432.219C156.83 432.811 156.806 433.411 156.95 434.019C157.11 434.611 157.438 435.115 157.934 435.531C158.43 435.931 159.102 436.131 159.95 436.131ZM173.032 442.347C172.024 442.347 171.2 442.211 170.56 441.939C169.92 441.651 169.416 441.323 169.048 440.955C168.696 440.571 168.448 440.235 168.304 439.947C168.16 439.659 168.088 439.507 168.088 439.491L170.032 439.035C170.032 439.051 170.08 439.139 170.176 439.299C170.272 439.443 170.432 439.619 170.656 439.827C170.896 440.019 171.208 440.195 171.592 440.355C171.976 440.499 172.456 440.571 173.032 440.571C174.28 440.571 175.208 440.027 175.816 438.939C176.44 437.851 176.72 436.259 176.656 434.163C176.624 434.403 176.512 434.707 176.32 435.075C176.144 435.427 175.888 435.779 175.552 436.131C175.216 436.483 174.784 436.779 174.256 437.019C173.744 437.259 173.144 437.379 172.456 437.379C171.384 437.379 170.496 437.163 169.792 436.731C169.104 436.299 168.592 435.747 168.256 435.075C167.936 434.403 167.792 433.691 167.824 432.939C167.872 432.171 168.096 431.451 168.496 430.779C168.896 430.107 169.48 429.555 170.248 429.123C171.016 428.691 171.96 428.475 173.08 428.475C174.44 428.475 175.536 428.803 176.368 429.459C177.2 430.099 177.792 430.955 178.144 432.027C178.512 433.099 178.664 434.267 178.6 435.531C178.552 436.795 178.344 437.947 177.976 438.987C177.608 440.011 177.024 440.827 176.224 441.435C175.44 442.043 174.376 442.347 173.032 442.347ZM172.864 436.131C173.904 436.131 174.72 435.819 175.312 435.195C175.92 434.555 176.28 433.763 176.392 432.819C176.168 431.907 175.76 431.227 175.168 430.779C174.576 430.331 173.872 430.107 173.056 430.107C172.208 430.107 171.52 430.307 170.992 430.707C170.48 431.107 170.128 431.611 169.936 432.219C169.744 432.811 169.72 433.411 169.864 434.019C170.024 434.611 170.352 435.115 170.848 435.531C171.344 435.931 172.016 436.131 172.864 436.131ZM184.506 442.107H182.514C182.514 440.267 182.778 438.603 183.306 437.115C183.85 435.627 184.586 434.323 185.514 433.203C186.458 432.067 187.53 431.107 188.73 430.323H180.738V428.595H190.65V430.275C190.266 430.531 189.81 430.867 189.282 431.283C188.754 431.699 188.21 432.219 187.65 432.843C187.106 433.451 186.594 434.195 186.114 435.075C185.634 435.939 185.242 436.955 184.938 438.123C184.65 439.275 184.506 440.603 184.506 442.107ZM196.389 442.107H194.397C194.397 440.267 194.661 438.603 195.189 437.115C195.733 435.627 196.469 434.323 197.397 433.203C198.341 432.067 199.413 431.107 200.613 430.323H192.621V428.595H202.533V430.275C202.149 430.531 201.693 430.867 201.165 431.283C200.637 431.699 200.093 432.219 199.533 432.843C198.989 433.451 198.477 434.195 197.997 435.075C197.517 435.939 197.125 436.955 196.821 438.123C196.533 439.275 196.389 440.603 196.389 442.107ZM217.429 432.075L214.261 432.627L216.493 434.907L215.005 435.987L213.517 433.179L212.029 435.987L210.541 434.907L212.797 432.627L209.629 432.075L210.205 430.347L213.061 431.787L212.605 428.595H214.453L213.997 431.787L216.853 430.347L217.429 432.075ZM226.546 432.075L223.378 432.627L225.61 434.907L224.122 435.987L222.634 433.179L221.146 435.987L219.658 434.907L221.914 432.627L218.746 432.075L219.322 430.347L222.178 431.787L221.722 428.595H223.57L223.114 431.787L225.97 430.347L226.546 432.075ZM235.663 432.075L232.495 432.627L234.727 434.907L233.239 435.987L231.751 433.179L230.263 435.987L228.775 434.907L231.031 432.627L227.863 432.075L228.439 430.347L231.295 431.787L230.839 428.595H232.687L232.231 431.787L235.087 430.347L235.663 432.075ZM244.781 432.075L241.613 432.627L243.845 434.907L242.357 435.987L240.869 433.179L239.381 435.987L237.893 434.907L240.149 432.627L236.981 432.075L237.557 430.347L240.413 431.787L239.957 428.595H241.805L241.349 431.787L244.205 430.347L244.781 432.075Z" fill="white"/>
<path d="M101.167 481.107V467.595H103.159V474.291L109.711 467.595H112.303V467.859L106.759 473.163L112.591 480.843V481.107H110.287L105.295 474.531L103.159 476.595V481.107H101.167ZM115.217 481.107C114.721 481.107 114.385 480.987 114.209 480.747C114.049 480.491 113.969 480.179 113.969 479.811C113.969 479.475 114.049 479.187 114.209 478.947C114.385 478.691 114.721 478.563 115.217 478.563C115.681 478.563 115.993 478.691 116.153 478.947C116.329 479.187 116.417 479.475 116.417 479.811C116.417 480.179 116.329 480.491 116.153 480.747C115.993 480.987 115.681 481.107 115.217 481.107ZM123.663 481.107L128.199 467.595H131.487L136.119 481.107H133.983L132.687 477.075H127.071L125.775 481.107H123.663ZM129.879 468.435L127.599 475.491H132.159L129.879 468.435ZM138.128 481.107V467.595H140.12V474.291L146.672 467.595H149.264V467.859L143.72 473.163L149.552 480.843V481.107H147.248L142.256 474.531L140.12 476.595V481.107H138.128ZM157.098 481.443C155.242 481.443 153.818 480.915 152.826 479.859C151.85 478.787 151.362 477.283 151.362 475.347V467.595H153.45V475.323C153.45 476.363 153.618 477.195 153.954 477.819C154.29 478.427 154.73 478.867 155.274 479.139C155.834 479.411 156.442 479.547 157.098 479.547C157.818 479.547 158.45 479.419 158.994 479.163C159.554 478.891 159.986 478.451 160.29 477.843C160.61 477.219 160.77 476.379 160.77 475.323V467.595H162.858V475.347C162.858 477.315 162.37 478.827 161.394 479.883C160.434 480.923 159.002 481.443 157.098 481.443ZM169.312 481.347C168.576 481.347 167.888 481.211 167.248 480.939C166.608 480.651 166.088 480.211 165.688 479.619C165.304 479.011 165.112 478.227 165.112 477.267H166.984C166.984 477.635 167.048 478.003 167.176 478.371C167.304 478.723 167.528 479.019 167.848 479.259C168.184 479.499 168.656 479.619 169.264 479.619C170.016 479.619 170.576 479.411 170.944 478.995C171.312 478.563 171.496 477.811 171.496 476.739V469.155H168.784V467.595H173.488V476.451C173.488 477.475 173.36 478.355 173.104 479.091C172.864 479.811 172.44 480.371 171.832 480.771C171.24 481.155 170.4 481.347 169.312 481.347ZM181.988 481.443C180.132 481.443 178.708 480.915 177.716 479.859C176.74 478.787 176.252 477.283 176.252 475.347V467.595H178.34V475.323C178.34 476.363 178.508 477.195 178.844 477.819C179.18 478.427 179.62 478.867 180.164 479.139C180.724 479.411 181.332 479.547 181.988 479.547C182.708 479.547 183.34 479.419 183.884 479.163C184.444 478.891 184.876 478.451 185.18 477.843C185.5 477.219 185.66 476.379 185.66 475.323V467.595H187.748V475.347C187.748 477.315 187.26 478.827 186.284 479.883C185.324 480.923 183.892 481.443 181.988 481.443ZM196.171 481.443C194.011 481.443 192.363 480.811 191.227 479.547C190.091 478.267 189.523 476.547 189.523 474.387C189.523 472.963 189.763 471.731 190.243 470.691C190.739 469.635 191.475 468.819 192.451 468.243C193.443 467.651 194.683 467.355 196.171 467.355C198.331 467.355 199.971 467.995 201.091 469.275C202.227 470.539 202.795 472.243 202.795 474.387C202.795 475.779 202.539 477.011 202.027 478.083C201.531 479.139 200.787 479.963 199.795 480.555C198.819 481.147 197.611 481.443 196.171 481.443ZM196.147 479.523C197.699 479.523 198.867 479.043 199.651 478.083C200.435 477.123 200.827 475.891 200.827 474.387C200.827 472.883 200.435 471.651 199.651 470.691C198.883 469.715 197.715 469.227 196.147 469.227C194.611 469.227 193.443 469.691 192.643 470.619C191.859 471.547 191.467 472.803 191.467 474.387C191.467 475.379 191.635 476.267 191.971 477.051C192.307 477.819 192.819 478.427 193.507 478.875C194.211 479.307 195.091 479.523 196.147 479.523ZM205.037 481.107V467.595H210.149C210.677 467.595 211.245 467.635 211.853 467.715C212.461 467.779 213.029 467.931 213.557 468.171C214.085 468.395 214.517 468.747 214.853 469.227C215.189 469.707 215.357 470.355 215.357 471.171C215.357 471.683 215.253 472.163 215.045 472.611C214.853 473.043 214.493 473.395 213.965 473.667C213.437 473.939 212.685 474.091 211.709 474.123V474.219C212.845 474.235 213.717 474.395 214.325 474.699C214.949 475.003 215.381 475.403 215.621 475.899C215.861 476.379 215.981 476.915 215.981 477.507C215.981 478.355 215.797 479.019 215.429 479.499C215.061 479.979 214.589 480.339 214.013 480.579C213.437 480.803 212.821 480.947 212.165 481.011C211.525 481.075 210.917 481.107 210.341 481.107H205.037ZM207.005 473.355H209.909C210.565 473.355 211.149 473.323 211.661 473.259C212.189 473.179 212.605 472.995 212.909 472.707C213.213 472.419 213.365 471.971 213.365 471.363C213.365 470.707 213.205 470.235 212.885 469.947C212.565 469.643 212.141 469.451 211.613 469.371C211.085 469.291 210.525 469.251 209.933 469.251H207.005V473.355ZM207.005 479.475H210.173C210.861 479.475 211.485 479.435 212.045 479.355C212.605 479.259 213.053 479.059 213.389 478.755C213.741 478.435 213.917 477.939 213.917 477.267C213.917 476.579 213.733 476.067 213.365 475.731C213.013 475.395 212.533 475.179 211.925 475.083C211.333 474.971 210.685 474.915 209.981 474.915H207.005V479.475ZM223.872 479.379V481.107H218.232V479.379H220.08V469.323H218.232V467.595H223.872V469.323H222.048V479.379H223.872Z" fill="white"/>
<circle cx="336.5" cy="117.389" r="20" fill="white" fill-opacity="0.24"/>
<path d="M329.5 113.889L336.5 120.889L343.5 113.889" stroke="white" stroke-width="3" stroke-linecap="round" stroke-linejoin="round"/>
<defs>
<filter id="filter0_d" x="0.5" y="0.712158" width="455" height="596.756" filterUnits="userSpaceOnUse" color-interpolation-filters="sRGB">
<feFlood flood-opacity="0" result="BackgroundImageFix"/>
<feColorMatrix in="SourceAlpha" type="matrix" values="0 0 0 0 0 0 0 0 0 0 0 0 0 0 0 0 0 0 127 0"/>
<feOffset dy="12"/>
<feGaussianBlur stdDeviation="34"/>
<feColorMatrix type="matrix" values="0 0 0 0 0 0 0 0 0 0 0 0 0 0 0 0 0 0 0.1 0"/>
<feBlend mode="normal" in2="BackgroundImageFix" result="effect1_dropShadow"/>
<feBlend mode="normal" in="SourceGraphic" in2="effect1_dropShadow" result="shape"/>
</filter>
</defs>
</svg>
