<svg width="36" height="30" viewBox="0 0 36 30" fill="none" xmlns="http://www.w3.org/2000/svg">
<path d="M35.4346 0.647798C33.8973 1.72002 32.1952 2.5401 30.3939 3.07646C29.4271 1.97723 28.1422 1.19812 26.713 0.844513C25.2837 0.490904 23.7792 0.579852 22.4028 1.09933C21.0263 1.6188 19.8445 2.54374 19.017 3.74905C18.1895 4.95435 17.7564 6.38187 17.7761 7.83853V9.42589C14.955 9.49822 12.1596 8.87954 9.6388 7.62495C7.11803 6.37035 4.95018 4.51879 3.3283 2.23516C3.3283 2.23516 -3.09295 16.5214 11.3549 22.8708C8.04877 25.0899 4.11034 26.2026 0.117676 26.0455C14.5655 33.9823 32.2239 26.0455 32.2239 7.79091C32.2225 7.34876 32.1795 6.9077 32.0955 6.4734C33.7339 4.87572 34.8901 2.85853 35.4346 0.647798Z" fill="black"/>
</svg>
