<svg width="319" height="600" viewBox="69 0 319 600" fill="none" xmlns="http://www.w3.org/2000/svg">
<g filter="url(#filter0_d)">
<rect x="68.5" y="56.7122" width="319" height="460.756" rx="32" fill="#107C10"/>
</g>
<path d="M118.492 139.517C115.242 139.205 111.951 138.038 109.125 136.194C106.756 134.649 106.222 134.013 106.222 132.746C106.222 130.199 109.022 125.738 113.813 120.654C116.533 117.766 120.323 114.382 120.732 114.473C121.529 114.651 127.899 120.865 130.284 123.79C134.055 128.415 135.788 132.202 134.908 133.891C134.238 135.174 130.084 137.683 127.032 138.646C124.517 139.441 121.213 139.777 118.492 139.517ZM103.023 130.098C101.054 127.078 100.06 124.106 99.5803 119.806C99.4214 118.387 99.4773 117.575 99.9397 114.66C100.515 111.031 102.583 106.829 105.069 104.245C106.127 103.146 106.221 103.117 107.512 103.553C109.076 104.083 110.749 105.238 113.343 107.584L114.858 108.954L114.029 109.969C110.19 114.682 106.139 121.366 104.614 125.499C103.785 127.745 103.452 130.001 103.81 130.94C104.05 131.575 103.829 131.338 103.02 130.1L103.023 130.098ZM137.571 130.612C137.766 129.662 137.519 127.919 136.943 126.161C135.695 122.353 131.523 115.27 127.691 110.453L126.485 108.937L127.79 107.739C129.494 106.175 130.677 105.238 131.954 104.442C132.96 103.815 134.4 103.259 135.019 103.259C135.4 103.259 136.743 104.657 137.826 106.177C139.505 108.531 140.74 111.389 141.366 114.361C141.77 116.283 141.804 120.393 141.431 122.31C141.122 123.883 140.475 125.922 139.847 127.305C139.372 128.342 138.2 130.355 137.685 131.01C137.42 131.347 137.42 131.346 137.567 130.619L137.571 130.612ZM118.84 102.54C117.072 101.643 114.344 100.679 112.838 100.419C112.31 100.329 111.41 100.277 110.837 100.307C109.594 100.369 109.649 100.305 111.643 99.3626C113.3 98.5794 114.683 98.119 116.561 97.7247C118.672 97.2809 122.642 97.276 124.72 97.7139C126.963 98.1871 129.606 99.1703 131.095 100.087L131.538 100.359L130.523 100.308C128.504 100.206 125.563 101.022 122.405 102.557C121.453 103.021 120.625 103.391 120.564 103.381C120.504 103.369 119.728 102.991 118.838 102.54H118.84Z" fill="white"/>
<path d="M100.534 442.604V440.948C100.55 440.932 100.758 440.804 101.158 440.564C101.574 440.324 102.102 439.996 102.742 439.58C103.382 439.148 104.046 438.668 104.734 438.14C105.438 437.596 106.086 437.02 106.678 436.412C107.27 435.804 107.718 435.204 108.022 434.612C108.39 433.844 108.502 433.164 108.358 432.572C108.23 431.964 107.91 431.492 107.398 431.156C106.902 430.804 106.286 430.628 105.55 430.628C104.638 430.644 103.91 430.94 103.366 431.516C102.822 432.092 102.598 432.956 102.694 434.108L100.846 433.868C100.766 432.844 100.926 431.972 101.326 431.252C101.742 430.516 102.334 429.956 103.102 429.572C103.87 429.172 104.758 428.972 105.766 428.972C106.63 428.972 107.398 429.132 108.07 429.452C108.742 429.756 109.278 430.188 109.678 430.748C110.094 431.292 110.326 431.916 110.374 432.62C110.422 433.324 110.254 434.068 109.87 434.852C109.566 435.444 109.142 436.028 108.598 436.604C108.07 437.164 107.486 437.692 106.846 438.188C106.206 438.684 105.582 439.132 104.974 439.532C104.382 439.916 103.862 440.228 103.414 440.468C102.982 440.692 102.71 440.828 102.598 440.876H110.638V442.604H100.534ZM112.675 442.604V440.948C112.691 440.932 112.899 440.804 113.299 440.564C113.715 440.324 114.243 439.996 114.883 439.58C115.523 439.148 116.187 438.668 116.875 438.14C117.579 437.596 118.227 437.02 118.819 436.412C119.411 435.804 119.859 435.204 120.163 434.612C120.531 433.844 120.643 433.164 120.499 432.572C120.371 431.964 120.051 431.492 119.539 431.156C119.043 430.804 118.427 430.628 117.691 430.628C116.779 430.644 116.051 430.94 115.507 431.516C114.963 432.092 114.739 432.956 114.835 434.108L112.987 433.868C112.907 432.844 113.067 431.972 113.467 431.252C113.883 430.516 114.475 429.956 115.243 429.572C116.011 429.172 116.899 428.972 117.907 428.972C118.771 428.972 119.539 429.132 120.211 429.452C120.883 429.756 121.419 430.188 121.819 430.748C122.235 431.292 122.467 431.916 122.515 432.62C122.563 433.324 122.395 434.068 122.011 434.852C121.707 435.444 121.283 436.028 120.739 436.604C120.211 437.164 119.627 437.692 118.987 438.188C118.347 438.684 117.723 439.132 117.115 439.532C116.523 439.916 116.003 440.228 115.555 440.468C115.123 440.692 114.851 440.828 114.739 440.876H122.779V442.604H112.675ZM128.631 442.604H126.639C126.639 440.764 126.903 439.1 127.431 437.612C127.975 436.124 128.711 434.82 129.639 433.7C130.583 432.564 131.655 431.604 132.855 430.82H124.863V429.092H134.775V430.772C134.391 431.028 133.935 431.364 133.407 431.78C132.879 432.196 132.335 432.716 131.775 433.34C131.231 433.948 130.719 434.692 130.239 435.572C129.759 436.436 129.367 437.452 129.063 438.62C128.775 439.772 128.631 441.1 128.631 442.604ZM142.098 442.94C140.146 442.94 138.706 442.308 137.778 441.044C136.866 439.764 136.41 438.044 136.41 435.884C136.41 434.46 136.602 433.228 136.986 432.188C137.386 431.132 138.002 430.316 138.834 429.74C139.682 429.148 140.77 428.852 142.098 428.852C143.394 428.852 144.458 429.14 145.29 429.716C146.138 430.292 146.762 431.108 147.162 432.164C147.578 433.22 147.786 434.46 147.786 435.884C147.786 437.276 147.578 438.508 147.162 439.58C146.762 440.636 146.138 441.46 145.29 442.052C144.458 442.644 143.394 442.94 142.098 442.94ZM142.074 441.26C143.402 441.26 144.37 440.796 144.978 439.868C145.602 438.94 145.914 437.612 145.914 435.884C145.914 434.172 145.61 432.852 145.002 431.924C144.394 430.98 143.418 430.508 142.074 430.508C140.778 430.508 139.818 430.964 139.194 431.876C138.586 432.772 138.282 434.108 138.282 435.884C138.282 437.596 138.578 438.924 139.17 439.868C139.762 440.796 140.73 441.26 142.074 441.26ZM160.118 442.844C159.11 442.844 158.286 442.708 157.646 442.436C157.006 442.148 156.502 441.82 156.134 441.452C155.782 441.068 155.534 440.732 155.39 440.444C155.246 440.156 155.174 440.004 155.174 439.988L157.118 439.532C157.118 439.548 157.166 439.636 157.262 439.796C157.358 439.94 157.518 440.116 157.742 440.324C157.982 440.516 158.294 440.692 158.678 440.852C159.062 440.996 159.542 441.068 160.118 441.068C161.366 441.068 162.294 440.524 162.902 439.436C163.526 438.348 163.806 436.756 163.742 434.66C163.71 434.9 163.598 435.204 163.406 435.572C163.23 435.924 162.974 436.276 162.638 436.628C162.302 436.98 161.87 437.276 161.342 437.516C160.83 437.756 160.23 437.876 159.542 437.876C158.47 437.876 157.582 437.66 156.878 437.228C156.19 436.796 155.678 436.244 155.342 435.572C155.022 434.9 154.878 434.188 154.91 433.436C154.958 432.668 155.182 431.948 155.582 431.276C155.982 430.604 156.566 430.052 157.334 429.62C158.102 429.188 159.046 428.972 160.166 428.972C161.526 428.972 162.622 429.3 163.454 429.956C164.286 430.596 164.878 431.452 165.23 432.524C165.598 433.596 165.75 434.764 165.686 436.028C165.638 437.292 165.43 438.444 165.062 439.484C164.694 440.508 164.11 441.324 163.31 441.932C162.526 442.54 161.462 442.844 160.118 442.844ZM159.95 436.628C160.99 436.628 161.806 436.316 162.398 435.692C163.006 435.052 163.366 434.26 163.478 433.316C163.254 432.404 162.846 431.724 162.254 431.276C161.662 430.828 160.958 430.604 160.142 430.604C159.294 430.604 158.606 430.804 158.078 431.204C157.566 431.604 157.214 432.108 157.022 432.716C156.83 433.308 156.806 433.908 156.95 434.516C157.11 435.108 157.438 435.612 157.934 436.028C158.43 436.428 159.102 436.628 159.95 436.628ZM173.032 442.844C172.024 442.844 171.2 442.708 170.56 442.436C169.92 442.148 169.416 441.82 169.048 441.452C168.696 441.068 168.448 440.732 168.304 440.444C168.16 440.156 168.088 440.004 168.088 439.988L170.032 439.532C170.032 439.548 170.08 439.636 170.176 439.796C170.272 439.94 170.432 440.116 170.656 440.324C170.896 440.516 171.208 440.692 171.592 440.852C171.976 440.996 172.456 441.068 173.032 441.068C174.28 441.068 175.208 440.524 175.816 439.436C176.44 438.348 176.72 436.756 176.656 434.66C176.624 434.9 176.512 435.204 176.32 435.572C176.144 435.924 175.888 436.276 175.552 436.628C175.216 436.98 174.784 437.276 174.256 437.516C173.744 437.756 173.144 437.876 172.456 437.876C171.384 437.876 170.496 437.66 169.792 437.228C169.104 436.796 168.592 436.244 168.256 435.572C167.936 434.9 167.792 434.188 167.824 433.436C167.872 432.668 168.096 431.948 168.496 431.276C168.896 430.604 169.48 430.052 170.248 429.62C171.016 429.188 171.96 428.972 173.08 428.972C174.44 428.972 175.536 429.3 176.368 429.956C177.2 430.596 177.792 431.452 178.144 432.524C178.512 433.596 178.664 434.764 178.6 436.028C178.552 437.292 178.344 438.444 177.976 439.484C177.608 440.508 177.024 441.324 176.224 441.932C175.44 442.54 174.376 442.844 173.032 442.844ZM172.864 436.628C173.904 436.628 174.72 436.316 175.312 435.692C175.92 435.052 176.28 434.26 176.392 433.316C176.168 432.404 175.76 431.724 175.168 431.276C174.576 430.828 173.872 430.604 173.056 430.604C172.208 430.604 171.52 430.804 170.992 431.204C170.48 431.604 170.128 432.108 169.936 432.716C169.744 433.308 169.72 433.908 169.864 434.516C170.024 435.108 170.352 435.612 170.848 436.028C171.344 436.428 172.016 436.628 172.864 436.628ZM184.506 442.604H182.514C182.514 440.764 182.778 439.1 183.306 437.612C183.85 436.124 184.586 434.82 185.514 433.7C186.458 432.564 187.53 431.604 188.73 430.82H180.738V429.092H190.65V430.772C190.266 431.028 189.81 431.364 189.282 431.78C188.754 432.196 188.21 432.716 187.65 433.34C187.106 433.948 186.594 434.692 186.114 435.572C185.634 436.436 185.242 437.452 184.938 438.62C184.65 439.772 184.506 441.1 184.506 442.604ZM196.389 442.604H194.397C194.397 440.764 194.661 439.1 195.189 437.612C195.733 436.124 196.469 434.82 197.397 433.7C198.341 432.564 199.413 431.604 200.613 430.82H192.621V429.092H202.533V430.772C202.149 431.028 201.693 431.364 201.165 431.78C200.637 432.196 200.093 432.716 199.533 433.34C198.989 433.948 198.477 434.692 197.997 435.572C197.517 436.436 197.125 437.452 196.821 438.62C196.533 439.772 196.389 441.1 196.389 442.604ZM217.429 432.572L214.261 433.124L216.493 435.404L215.005 436.484L213.517 433.676L212.029 436.484L210.541 435.404L212.797 433.124L209.629 432.572L210.205 430.844L213.061 432.284L212.605 429.092H214.453L213.997 432.284L216.853 430.844L217.429 432.572ZM226.546 432.572L223.378 433.124L225.61 435.404L224.122 436.484L222.634 433.676L221.146 436.484L219.658 435.404L221.914 433.124L218.746 432.572L219.322 430.844L222.178 432.284L221.722 429.092H223.57L223.114 432.284L225.97 430.844L226.546 432.572ZM235.663 432.572L232.495 433.124L234.727 435.404L233.239 436.484L231.751 433.676L230.263 436.484L228.775 435.404L231.031 433.124L227.863 432.572L228.439 430.844L231.295 432.284L230.839 429.092H232.687L232.231 432.284L235.087 430.844L235.663 432.572ZM244.781 432.572L241.613 433.124L243.845 435.404L242.357 436.484L240.869 433.676L239.381 436.484L237.893 435.404L240.149 433.124L236.981 432.572L237.557 430.844L240.413 432.284L239.957 429.092H241.805L241.349 432.284L244.205 430.844L244.781 432.572Z" fill="white"/>
<path d="M101.167 481.604V468.092H103.159V474.788L109.711 468.092H112.303V468.356L106.759 473.66L112.591 481.34V481.604H110.287L105.295 475.028L103.159 477.092V481.604H101.167ZM115.217 481.604C114.721 481.604 114.385 481.484 114.209 481.244C114.049 480.988 113.969 480.676 113.969 480.308C113.969 479.972 114.049 479.684 114.209 479.444C114.385 479.188 114.721 479.06 115.217 479.06C115.681 479.06 115.993 479.188 116.153 479.444C116.329 479.684 116.417 479.972 116.417 480.308C116.417 480.676 116.329 480.988 116.153 481.244C115.993 481.484 115.681 481.604 115.217 481.604ZM123.663 481.604L128.199 468.092H131.487L136.119 481.604H133.983L132.687 477.572H127.071L125.775 481.604H123.663ZM129.879 468.932L127.599 475.988H132.159L129.879 468.932ZM138.128 481.604V468.092H140.12V474.788L146.672 468.092H149.264V468.356L143.72 473.66L149.552 481.34V481.604H147.248L142.256 475.028L140.12 477.092V481.604H138.128ZM157.098 481.94C155.242 481.94 153.818 481.412 152.826 480.356C151.85 479.284 151.362 477.78 151.362 475.844V468.092H153.45V475.82C153.45 476.86 153.618 477.692 153.954 478.316C154.29 478.924 154.73 479.364 155.274 479.636C155.834 479.908 156.442 480.044 157.098 480.044C157.818 480.044 158.45 479.916 158.994 479.66C159.554 479.388 159.986 478.948 160.29 478.34C160.61 477.716 160.77 476.876 160.77 475.82V468.092H162.858V475.844C162.858 477.812 162.37 479.324 161.394 480.38C160.434 481.42 159.002 481.94 157.098 481.94ZM169.312 481.844C168.576 481.844 167.888 481.708 167.248 481.436C166.608 481.148 166.088 480.708 165.688 480.116C165.304 479.508 165.112 478.724 165.112 477.764H166.984C166.984 478.132 167.048 478.5 167.176 478.868C167.304 479.22 167.528 479.516 167.848 479.756C168.184 479.996 168.656 480.116 169.264 480.116C170.016 480.116 170.576 479.908 170.944 479.492C171.312 479.06 171.496 478.308 171.496 477.236V469.652H168.784V468.092H173.488V476.948C173.488 477.972 173.36 478.852 173.104 479.588C172.864 480.308 172.44 480.868 171.832 481.268C171.24 481.652 170.4 481.844 169.312 481.844ZM181.988 481.94C180.132 481.94 178.708 481.412 177.716 480.356C176.74 479.284 176.252 477.78 176.252 475.844V468.092H178.34V475.82C178.34 476.86 178.508 477.692 178.844 478.316C179.18 478.924 179.62 479.364 180.164 479.636C180.724 479.908 181.332 480.044 181.988 480.044C182.708 480.044 183.34 479.916 183.884 479.66C184.444 479.388 184.876 478.948 185.18 478.34C185.5 477.716 185.66 476.876 185.66 475.82V468.092H187.748V475.844C187.748 477.812 187.26 479.324 186.284 480.38C185.324 481.42 183.892 481.94 181.988 481.94ZM196.171 481.94C194.011 481.94 192.363 481.308 191.227 480.044C190.091 478.764 189.523 477.044 189.523 474.884C189.523 473.46 189.763 472.228 190.243 471.188C190.739 470.132 191.475 469.316 192.451 468.74C193.443 468.148 194.683 467.852 196.171 467.852C198.331 467.852 199.971 468.492 201.091 469.772C202.227 471.036 202.795 472.74 202.795 474.884C202.795 476.276 202.539 477.508 202.027 478.58C201.531 479.636 200.787 480.46 199.795 481.052C198.819 481.644 197.611 481.94 196.171 481.94ZM196.147 480.02C197.699 480.02 198.867 479.54 199.651 478.58C200.435 477.62 200.827 476.388 200.827 474.884C200.827 473.38 200.435 472.148 199.651 471.188C198.883 470.212 197.715 469.724 196.147 469.724C194.611 469.724 193.443 470.188 192.643 471.116C191.859 472.044 191.467 473.3 191.467 474.884C191.467 475.876 191.635 476.764 191.971 477.548C192.307 478.316 192.819 478.924 193.507 479.372C194.211 479.804 195.091 480.02 196.147 480.02ZM205.037 481.604V468.092H210.149C210.677 468.092 211.245 468.132 211.853 468.212C212.461 468.276 213.029 468.428 213.557 468.668C214.085 468.892 214.517 469.244 214.853 469.724C215.189 470.204 215.357 470.852 215.357 471.668C215.357 472.18 215.253 472.66 215.045 473.108C214.853 473.54 214.493 473.892 213.965 474.164C213.437 474.436 212.685 474.588 211.709 474.62V474.716C212.845 474.732 213.717 474.892 214.325 475.196C214.949 475.5 215.381 475.9 215.621 476.396C215.861 476.876 215.981 477.412 215.981 478.004C215.981 478.852 215.797 479.516 215.429 479.996C215.061 480.476 214.589 480.836 214.013 481.076C213.437 481.3 212.821 481.444 212.165 481.508C211.525 481.572 210.917 481.604 210.341 481.604H205.037ZM207.005 473.852H209.909C210.565 473.852 211.149 473.82 211.661 473.756C212.189 473.676 212.605 473.492 212.909 473.204C213.213 472.916 213.365 472.468 213.365 471.86C213.365 471.204 213.205 470.732 212.885 470.444C212.565 470.14 212.141 469.948 211.613 469.868C211.085 469.788 210.525 469.748 209.933 469.748H207.005V473.852ZM207.005 479.972H210.173C210.861 479.972 211.485 479.932 212.045 479.852C212.605 479.756 213.053 479.556 213.389 479.252C213.741 478.932 213.917 478.436 213.917 477.764C213.917 477.076 213.733 476.564 213.365 476.228C213.013 475.892 212.533 475.676 211.925 475.58C211.333 475.468 210.685 475.412 209.981 475.412H207.005V479.972ZM223.872 479.876V481.604H218.232V479.876H220.08V469.82H218.232V468.092H223.872V469.82H222.048V479.876H223.872Z" fill="white"/>
<circle cx="336.5" cy="117.389" r="20" fill="white" fill-opacity="0.24"/>
<path d="M329.5 113.889L336.5 120.889L343.5 113.889" stroke="white" stroke-width="3" stroke-linecap="round" stroke-linejoin="round"/>
<defs>
<filter id="filter0_d" x="0.5" y="0.712158" width="455" height="596.756" filterUnits="userSpaceOnUse" color-interpolation-filters="sRGB">
<feFlood flood-opacity="0" result="BackgroundImageFix"/>
<feColorMatrix in="SourceAlpha" type="matrix" values="0 0 0 0 0 0 0 0 0 0 0 0 0 0 0 0 0 0 127 0"/>
<feOffset dy="12"/>
<feGaussianBlur stdDeviation="34"/>
<feColorMatrix type="matrix" values="0 0 0 0 0 0 0 0 0 0 0 0 0 0 0 0 0 0 0.1 0"/>
<feBlend mode="normal" in2="BackgroundImageFix" result="effect1_dropShadow"/>
<feBlend mode="normal" in="SourceGraphic" in2="effect1_dropShadow" result="shape"/>
</filter>
</defs>
</svg>
